<mxfile host="app.diagrams.net" agent="Mozilla/5.0 (Windows NT 10.0; Win64; x64) AppleWebKit/537.36 (KHTML, like Gecko) Chrome/128.0.0.0 YaBrowser/24.10.0.0 Safari/537.36" version="25.0.3">
  <diagram name="Страница — 1" id="DRlbmh-aJE8WwhuMV7Xs">
    <mxGraphModel dx="989" dy="572" grid="1" gridSize="10" guides="1" tooltips="1" connect="1" arrows="1" fold="1" page="1" pageScale="1" pageWidth="827" pageHeight="1169" math="0" shadow="0">
      <root>
        <mxCell id="0" />
        <mxCell id="1" parent="0" />
        <mxCell id="Sel63lCRvHFa1AHUX7nV-2" value="pymongo-api" style="rounded=1;whiteSpace=wrap;html=1;" vertex="1" parent="1">
          <mxGeometry x="480" y="30" width="120" height="60" as="geometry" />
        </mxCell>
        <mxCell id="Sel63lCRvHFa1AHUX7nV-3" style="edgeStyle=orthogonalEdgeStyle;rounded=0;orthogonalLoop=1;jettySize=auto;html=1;exitX=0.5;exitY=1;exitDx=0;exitDy=0;entryX=0.5;entryY=0;entryDx=0;entryDy=0;" edge="1" parent="1" source="Sel63lCRvHFa1AHUX7nV-2" target="Sel63lCRvHFa1AHUX7nV-7">
          <mxGeometry relative="1" as="geometry">
            <mxPoint x="510" y="450" as="targetPoint" />
          </mxGeometry>
        </mxCell>
        <mxCell id="Sel63lCRvHFa1AHUX7nV-7" value="mongos-router" style="rounded=1;whiteSpace=wrap;html=1;" vertex="1" parent="1">
          <mxGeometry x="480" y="170" width="120" height="60" as="geometry" />
        </mxCell>
        <mxCell id="Sel63lCRvHFa1AHUX7nV-18" style="edgeStyle=orthogonalEdgeStyle;rounded=0;orthogonalLoop=1;jettySize=auto;html=1;entryX=0;entryY=0.5;entryDx=0;entryDy=0;startArrow=classic;startFill=1;" edge="1" parent="1" source="Sel63lCRvHFa1AHUX7nV-8" target="Sel63lCRvHFa1AHUX7nV-7">
          <mxGeometry relative="1" as="geometry" />
        </mxCell>
        <mxCell id="Sel63lCRvHFa1AHUX7nV-19" style="edgeStyle=orthogonalEdgeStyle;rounded=0;orthogonalLoop=1;jettySize=auto;html=1;entryX=0.5;entryY=1;entryDx=0;entryDy=0;entryPerimeter=0;startArrow=classic;startFill=1;endArrow=none;endFill=0;" edge="1" parent="1" source="Sel63lCRvHFa1AHUX7nV-8" target="Sel63lCRvHFa1AHUX7nV-4">
          <mxGeometry relative="1" as="geometry">
            <mxPoint x="630" y="440" as="targetPoint" />
            <Array as="points">
              <mxPoint x="330" y="430" />
              <mxPoint x="630" y="430" />
            </Array>
          </mxGeometry>
        </mxCell>
        <mxCell id="Sel63lCRvHFa1AHUX7nV-8" value="configSrv" style="rounded=1;whiteSpace=wrap;html=1;" vertex="1" parent="1">
          <mxGeometry x="270" y="170" width="120" height="60" as="geometry" />
        </mxCell>
        <mxCell id="Sel63lCRvHFa1AHUX7nV-14" value="" style="group" vertex="1" connectable="0" parent="1">
          <mxGeometry x="440" y="300" width="100" height="80" as="geometry" />
        </mxCell>
        <mxCell id="Sel63lCRvHFa1AHUX7nV-1" value="MongoDB" style="shape=cylinder3;whiteSpace=wrap;html=1;boundedLbl=1;backgroundOutline=1;size=15;" vertex="1" parent="Sel63lCRvHFa1AHUX7nV-14">
          <mxGeometry width="60" height="80" as="geometry" />
        </mxCell>
        <mxCell id="Sel63lCRvHFa1AHUX7nV-5" value="&lt;div style=&quot;text-align: center;&quot;&gt;shard1&lt;/div&gt;" style="text;whiteSpace=wrap;html=1;" vertex="1" parent="Sel63lCRvHFa1AHUX7nV-14">
          <mxGeometry x="10" width="90" height="40" as="geometry" />
        </mxCell>
        <mxCell id="Sel63lCRvHFa1AHUX7nV-15" value="" style="group" vertex="1" connectable="0" parent="1">
          <mxGeometry x="600" y="300" width="100" height="80" as="geometry" />
        </mxCell>
        <mxCell id="Sel63lCRvHFa1AHUX7nV-4" value="MongoDB" style="shape=cylinder3;whiteSpace=wrap;html=1;boundedLbl=1;backgroundOutline=1;size=15;" vertex="1" parent="Sel63lCRvHFa1AHUX7nV-15">
          <mxGeometry width="60" height="80" as="geometry" />
        </mxCell>
        <mxCell id="Sel63lCRvHFa1AHUX7nV-6" value="&lt;div style=&quot;text-align: center;&quot;&gt;shard2&lt;/div&gt;" style="text;whiteSpace=wrap;html=1;" vertex="1" parent="Sel63lCRvHFa1AHUX7nV-15">
          <mxGeometry x="10" width="90" height="40" as="geometry" />
        </mxCell>
        <mxCell id="Sel63lCRvHFa1AHUX7nV-16" style="edgeStyle=orthogonalEdgeStyle;rounded=0;orthogonalLoop=1;jettySize=auto;html=1;entryX=-0.012;entryY=0.247;entryDx=0;entryDy=0;entryPerimeter=0;" edge="1" parent="1" source="Sel63lCRvHFa1AHUX7nV-7" target="Sel63lCRvHFa1AHUX7nV-4">
          <mxGeometry relative="1" as="geometry" />
        </mxCell>
        <mxCell id="Sel63lCRvHFa1AHUX7nV-17" style="edgeStyle=orthogonalEdgeStyle;rounded=0;orthogonalLoop=1;jettySize=auto;html=1;entryX=1;entryY=0.5;entryDx=0;entryDy=0;entryPerimeter=0;" edge="1" parent="1" source="Sel63lCRvHFa1AHUX7nV-7" target="Sel63lCRvHFa1AHUX7nV-1">
          <mxGeometry relative="1" as="geometry" />
        </mxCell>
        <mxCell id="Sel63lCRvHFa1AHUX7nV-20" style="edgeStyle=orthogonalEdgeStyle;rounded=0;orthogonalLoop=1;jettySize=auto;html=1;entryX=0.5;entryY=1;entryDx=0;entryDy=0;" edge="1" parent="1" source="Sel63lCRvHFa1AHUX7nV-1" target="Sel63lCRvHFa1AHUX7nV-8">
          <mxGeometry relative="1" as="geometry" />
        </mxCell>
        <mxCell id="Sel63lCRvHFa1AHUX7nV-21" value="&lt;h1 style=&quot;margin-top: 0px;&quot;&gt;&lt;p class=&quot;p1&quot; style=&quot;text-indent: 0px; margin: 0px 0px 0px 21px; font-variant-numeric: normal; font-variant-east-asian: normal; font-variant-alternates: normal; font-kerning: auto; font-optical-sizing: auto; font-feature-settings: normal; font-variation-settings: normal; font-variant-position: normal; font-stretch: normal; line-height: normal;&quot;&gt;&lt;span style=&quot;font-size: 18px;&quot;&gt;pymongo-api&lt;/span&gt;&lt;span style=&quot;font-size: 18px; font-weight: normal;&quot;&gt; - это серверная API, реализующая методы для операций создания, чтения, обновления и удаления (CRUD).&lt;/span&gt;&lt;br&gt;&lt;/p&gt;&lt;p class=&quot;p1&quot; style=&quot;margin: 0px 0px 0px 21px; text-indent: -21px; font-variant-numeric: normal; font-variant-east-asian: normal; font-variant-alternates: normal; font-kerning: auto; font-optical-sizing: auto; font-feature-settings: normal; font-variation-settings: normal; font-variant-position: normal; font-stretch: normal; line-height: normal;&quot;&gt;&lt;span style=&quot;background-color: initial; text-indent: 0px;&quot;&gt;&lt;font style=&quot;font-size: 18px;&quot;&gt;mongos-router&lt;/font&gt;&lt;span style=&quot;font-size: 23px;&quot;&gt;&amp;nbsp;&lt;span style=&quot;font-weight: normal;&quot;&gt;-&amp;nbsp;&lt;/span&gt;&lt;/span&gt;&lt;/span&gt;&lt;span style=&quot;font-size: 18px; background-color: rgb(255, 255, 255); color: rgba(0, 0, 0, 0.85); font-family: &amp;quot;YS Text&amp;quot;, sans-serif; font-weight: 400; white-space-collapse: preserve-breaks;&quot;&gt;роутер определяет, на какой shard[1..n] отправить запрос.&lt;/span&gt;&lt;/p&gt;&lt;p class=&quot;p1&quot; style=&quot;margin: 0px 0px 0px 21px; text-indent: -21px; font-variant-numeric: normal; font-variant-east-asian: normal; font-variant-alternates: normal; font-kerning: auto; font-optical-sizing: auto; font-feature-settings: normal; font-variation-settings: normal; font-variant-position: normal; font-stretch: normal; line-height: normal;&quot;&gt;&lt;span style=&quot;background-color: initial; font-size: 18px;&quot;&gt;configSrv&lt;/span&gt;&lt;span style=&quot;background-color: initial; font-size: 18px; font-weight: normal;&quot;&gt; - это конфигурационный сервер, который хранит метаданные кластера. Эти метаданные содержат информацию о распределении данных кластера по шардам.&lt;/span&gt;&lt;/p&gt;&lt;div style=&quot;&quot;&gt;&lt;span style=&quot;background-color: initial; font-size: 18px;&quot;&gt;shard1&lt;/span&gt;&lt;span style=&quot;background-color: initial; font-size: 18px; font-weight: normal;&quot;&gt;, &lt;/span&gt;&lt;span style=&quot;background-color: initial; font-size: 18px;&quot;&gt;shard2&lt;/span&gt;&lt;span style=&quot;background-color: initial; font-size: 18px; font-weight: normal;&quot;&gt;... &lt;/span&gt;&lt;span style=&quot;background-color: initial; font-size: 18px;&quot;&gt;shardN&lt;/span&gt;&lt;span style=&quot;background-color: initial; font-size: 18px; font-weight: normal;&quot;&gt;, используются для хранения данных, и каждый из них представляет собой отдельную базу данных.&lt;/span&gt;&lt;/div&gt;&lt;/h1&gt;" style="text;html=1;whiteSpace=wrap;overflow=hidden;rounded=0;fontSize=15;align=left;" vertex="1" parent="1">
          <mxGeometry x="670" y="20" width="450" height="420" as="geometry" />
        </mxCell>
      </root>
    </mxGraphModel>
  </diagram>
</mxfile>
